# xmcd
#
# Track frame offsets:
#	182
#	12855
#	26845
#	41477
#	57592
#	71817
#	88847
#	98357
#	110937
#	124620
#	137157
#
# Disc length: 2120 seconds
#
# Revision: 0
# Processed by: cddbd v1.4PL0 Copyright (c) Steve Scherf et al.
# Submitted via: dBpowerAMP V4.0
#
DISCID=9a08460b
DTITLE=Edith Piaf - The Best of Paris Olympia
DYEAR=2001
DGENRE=Blues
TTITLE0=Comme Moi
TTITLE1=La Foùle
TTITLE2=Mon Manège À Moi
TTITLE3=C'est À Hambourg
TTITLE4=Bravo Pour le Clown
TTITLE5=Hymne À L'amour
TTITLE6=L'homme À la Moto
TTITLE7=Le Diable De la Bastille
TTITLE8=Le Petit Brouillard
TTITLE9=A Quoi Ça Sert L'amour
TTITLE10=Milord
EXTD=
EXTT0=
EXTT1=
EXTT2=
EXTT3=
EXTT4=
EXTT5=
EXTT6=
EXTT7=
EXTT8=
EXTT9=
EXTT10=
PLAYORDER=
